# xmcd
#
# Track frame offsets:
#	182
#	12760
#	30575
#	47307
#	62715
#	83970
#	97695
#	112580
#	124235
#	137010
#	150600
#
# Disc length: 2216 seconds
#
# Revision: 0
# Processed by: cddbd v1.5.1PL0 Copyright (c) Steve Scherf et al.
# Submitted via: dBpowerAMP V4.0
#
DISCID=7508a60b
DTITLE=Tonny Aabo - Henderson Road
DYEAR=1900
DGENRE=Country
TTITLE0=I Don't Know Where I'm Going
TTITLE1=Henderson Road
TTITLE2=There's A Party Going On
TTITLE3=Sing Me A Song Senorita
TTITLE4=The Cat Caught My Tongue
TTITLE5=Blow My Blues Away
TTITLE6=No Matter What You Might Say
TTITLE7=The Day They Drove My Cat Down
TTITLE8=Laura Lee
TTITLE9=Warmer Winds Are Blowing
TTITLE10=Please Mr. Mailmann
EXTD=
EXTT0=
EXTT1=
EXTT2=
EXTT3=
EXTT4=
EXTT5=
EXTT6=
EXTT7=
EXTT8=
EXTT9=
EXTT10=
PLAYORDER=
